# xmcd
# 
# Track frame offsets:
#     150
#     13761
#     25313
#     44210
#     58398
#     68287
#     78829
#     92400
#     112086
#     118573
#     135405
#     154391
#     163935
#     170169
#     179175
#     199011
#     212212
#     227804
#     240135
#     252549
#     269708
#     291417
#     310048
#     325631
# 
# Disc length: 4518
# 
# Revision: 2
# Processed by: cddbd v1.5.2PL0 Copyright (c) Steve Scherf et al.
# Submitted via: fre:ac v1.0.17
# 
DISCID=6711a418
DTITLE=Bobby Bare - Drunk and Crazy....plus
DYEAR=1980
DGENRE=Country
TTITLE0=Drunk And Crazy
TTITLE1=Food Blues
TTITLE2=The World's Last Truck Drivin' Man
TTITLE3=I Can Almost See Houston From Here
TTITLE4=If That Ain't Love
TTITLE5=Rock And Roll Hotel
TTITLE6=Song Of The South
TTITLE7=Appaloosa Rider
TTITLE8=Bathroom Tissue Paper Letter
TTITLE9=Willie Jones (& Charlie Daniels)
TTITLE10=Gotta Get Rid Of This Band
TTITLE11=Drinkin' And Druggin' And Watchin' T.V.
TTITLE12=Your Credit Card Won't Get You Into Heaven
TTITLE13=I've Never Gone To Bed With An Ugly Woman
TTITLE14=Desperados Waiting For The Train
TTITLE15=Greasy Grit Gravy (Bonus Track)
TTITLE16=New Cut Road (Bonus Track)
TTITLE17=If You Ain't Got Nothin' (You Ain't Got Nothin' To Lose) (Bonus Track)
TTITLE18=Praise The Lord And Pass Me The Money (Bonus Track)
TTITLE19=(They Covered Up) The Old Swimmin' Hole (Bonus Track)
TTITLE20=Me And Jimmy Rogers (Bonus Track)
TTITLE21=The Jogger (Bonus Track)
TTITLE22=No Memories Hangin' 'round (& Rosanne Cash) (Bonus Track)
TTITLE23=It's A Dirty Job (& Lacy J. Dalton) (Bonus Track)
EXTD=
EXTT0=
EXTT1=
EXTT2=
EXTT3=
EXTT4=
EXTT5=
EXTT6=
EXTT7=
EXTT8=
EXTT9=
EXTT10=
EXTT11=
EXTT12=
EXTT13=
EXTT14=
EXTT15=
EXTT16=
EXTT17=
EXTT18=
EXTT19=
EXTT20=
EXTT21=
EXTT22=
EXTT23=
PLAYORDER=
